<svg width="24" height="24" viewBox="0 0 24 24" fill="none" xmlns="http://www.w3.org/2000/svg">
<path d="M3.99959 4L19.9996 20M16.4996 16.756C15.1466 17.485 13.6176 18 11.9996 18C8.46959 18 5.36559 15.548 3.58659 13.779C3.11659 13.312 2.88159 13.079 2.73259 12.62C2.62559 12.293 2.62559 11.707 2.73259 11.38C2.88259 10.921 3.11759 10.687 3.58759 10.22C4.48459 9.328 5.71759 8.264 7.17159 7.427M19.4996 14.634C19.8326 14.341 20.1376 14.052 20.4116 13.78L20.4146 13.777C20.8826 13.311 21.1176 13.077 21.2666 12.621C21.3736 12.294 21.3736 11.707 21.2666 11.38C21.1166 10.922 20.8826 10.688 20.4126 10.221C18.6326 8.452 15.5306 6 11.9996 6C11.6616 6 11.3286 6.022 10.9996 6.064M13.3226 13.5C12.9353 13.842 12.4306 14.0209 11.9143 13.999C11.398 13.9772 10.9102 13.7564 10.5531 13.3829C10.1961 13.0094 9.9974 12.5122 9.99878 11.9955C10.0002 11.4787 10.2015 10.9826 10.5606 10.611" stroke="#FF6800" stroke-width="2" stroke-linecap="round" stroke-linejoin="round"/>
</svg>
