<?xml version="1.0" encoding="UTF-8"?>
<!-- Generator: Adobe Illustrator 26.0.1, SVG Export Plug-In . SVG Version: 6.00 Build 0)  -->
<svg version="1.1" id="Layer_1" xmlns="http://www.w3.org/2000/svg" xmlns:xlink="http://www.w3.org/1999/xlink" x="0px" y="0px" viewBox="0 0 20 24" style="enable-background:new 0 0 20 24;" xml:space="preserve">
<style type="text/css">
	.st0{fill:#FFFFFF;}
</style>
<g transform="translate(0, 0)">
	<g transform="translate(0.000001519491970469744, 0) rotate(0)">
		<path vector-effect="non-scaling-stroke" class="st0" d="M20,20.8L18.6,5.3c0-0.3-0.3-0.6-0.7-0.6h-2.9C14.9,2.1,12.7,0,10,0    S5.1,2.1,5.1,4.7H2.1C1.8,4.7,1.5,5,1.4,5.3L0,20.8c0,0,0,0,0,0.1c0.1,1.9,1.8,3.3,3.7,3.2h12.5C18.2,24.1,19.9,22.7,20,20.8    C20,20.8,20,20.8,20,20.8L20,20.8z M10,1.4c1.9,0,3.5,1.5,3.6,3.3H6.4C6.5,2.9,8.1,1.4,10,1.4z M16.2,22.7H3.7    c-1.2,0.1-2.2-0.7-2.4-1.8L2.7,6.1h2.3v2c0,0.2,0.1,0.5,0.3,0.6c0.2,0.1,0.5,0.1,0.7,0s0.3-0.4,0.3-0.6v-2h7.1v2    c0,0.2,0.1,0.5,0.3,0.6s0.5,0.1,0.7,0s0.3-0.4,0.3-0.6v-2h2.3l1.4,14.8C18.5,22,17.4,22.8,16.2,22.7z"/>
	</g>
</g>
</svg>